<svg width="177" height="179" viewBox="0 0 177 179" fill="none" xmlns="http://www.w3.org/2000/svg">
<path d="M125.849 16.6016C141.235 23.153 160.941 23.9351 170.415 37.7156C179.888 51.4951 173.653 70.1695 174.167 86.8834C174.665 103.023 179.128 119.398 173.397 134.495C167.439 150.187 156.393 164.431 141.667 172.486C127.329 180.328 110.124 178.728 93.7963 178.033C78.8059 177.395 64.5731 173.987 50.567 168.607C35.4145 162.786 18.1662 158.561 8.72765 145.355C-0.764604 132.074 -0.121402 114.319 0.0989988 97.9956C0.307425 82.5596 4.34889 67.9336 9.96719 53.5548C16.0131 38.0817 20.7336 20.7744 34.1173 10.9334C47.6395 0.990457 65.6953 -0.775414 82.4476 0.259732C98.1442 1.22965 111.379 10.4405 125.849 16.6016Z" fill="#755CAA"/>
</svg>
